<svg viewBox="0 0 817 762">
	<path d="M816.218,406.208 C815.832,409.096 815.509,411.994 815.049,414.87 C811.585,436.522 802.289,455.496 788.574,472.44 C780.316,482.641 770.8,491.497 760.184,499.193 C759.149,499.944 758.131,500.717 756.736,501.755 C758.279,502.687 759.544,503.436 760.796,504.205 C775.897,513.482 785.878,526.622 788.914,544.137 C792.393,564.216 787.015,581.915 771.883,595.994 C767.444,600.125 762.17,603.363 757.263,606.99 C756.328,607.681 755.322,608.275 754.172,609.029 C754.724,610.382 755.221,611.668 755.768,612.932 C760.83,624.644 757.657,640.857 746.009,648.865 C742.071,651.573 737.731,653.754 733.403,655.815 C728.868,657.976 724.127,659.705 719.267,661.709 C721.338,664.188 724.055,664.557 726.663,664.98 C733.981,666.169 741.231,665.415 748.287,663.413 C760.263,660.016 770.83,653.994 779.484,645.003 C782.862,641.494 785.571,637.342 788.63,633.427 C788.509,634.177 788.431,635.031 788.231,635.855 C785.217,648.268 780.369,659.901 773.848,670.906 C761.228,692.204 742.363,702.07 717.929,701.846 C706.243,701.739 695.122,698.999 684.689,693.722 C681.981,692.353 679.365,690.701 676.96,688.847 C660.395,676.081 665.245,654.97 674.933,646.07 C676.564,644.572 678.204,643.082 680.464,641.017 C678.688,640.943 677.607,640.841 676.528,640.863 C661.382,641.162 646.531,639.368 632.071,634.711 C614.116,628.929 598.812,619.207 586.295,604.94 C575.689,592.851 567.125,579.725 562.792,564.095 C556.27,540.571 558.443,518.223 572.261,497.657 C576.442,491.434 581.302,485.665 585.894,479.721 C586.963,478.337 588.207,477.088 589.686,475.423 C588.295,474.573 587.15,473.844 585.976,473.162 C575.57,467.117 565.82,460.207 557.432,451.505 C546.957,440.636 539.806,428.072 538.097,412.846 C536.642,399.882 538.523,387.335 543.122,375.145 C549.688,357.744 560.351,343.194 573.872,330.607 C575.122,329.443 576.359,328.267 577.95,326.769 C549.851,328.674 503.349,359.376 489.138,385.116 C489.371,385.55 489.617,386.077 489.923,386.565 C502.754,406.97 507.356,429.461 506.416,453.223 C505.884,466.657 502.918,479.725 499.303,492.65 C497.06,500.67 494.87,508.71 492.93,516.806 C492.093,520.302 491.948,523.963 491.455,527.8 C494.801,528.525 497.767,529.072 500.681,529.823 C503.627,530.583 506.692,531.242 508.776,533.759 C509.817,535.015 510.938,536.298 511.599,537.759 C521.984,560.708 530.441,584.308 535.697,609.003 C539.298,625.918 541.923,642.969 542.647,660.247 C543.138,671.976 543.07,683.728 543.211,695.471 C543.29,702.039 543.471,708.615 543.26,715.175 C543.085,720.59 541.863,725.864 539.895,730.95 C537.129,738.097 532.194,742.853 524.843,745.163 C518.639,747.112 512.267,748.184 505.822,748.607 C488.567,749.739 471.304,749.819 454.086,747.969 C450.84,747.62 447.552,747.014 444.461,745.99 C437.39,743.647 434.382,738.011 436.037,730.772 C436.5,728.75 437.155,726.772 437.777,724.58 C428.548,723.883 419.594,723.206 410.266,722.502 C409.98,724.718 409.671,727.128 409.358,729.537 C408.673,734.806 407.449,739.929 405.111,744.73 C402.254,750.598 397.951,754.96 391.53,756.681 C386.557,758.014 381.496,759.063 376.429,759.988 C373.438,760.534 370.355,760.564 367.321,760.892 C366.537,760.977 365.78,761.311 365.011,761.531 C352.556,761.531 340.1,761.531 327.645,761.531 C323.833,761.048 320.002,760.673 316.213,760.051 C312.753,759.483 309.245,758.933 305.92,757.87 C298.929,755.636 295.684,749.876 297.191,742.725 C297.671,740.446 298.554,738.248 299.301,736.031 C299.662,734.96 300.137,733.927 300.72,732.481 C298.953,732.481 297.685,732.482 296.418,732.481 C285.732,732.479 275.041,732.663 264.361,732.388 C259.583,732.266 254.785,731.452 250.074,730.548 C241.437,728.89 239.831,722.329 241.356,715.691 C241.875,713.432 242.855,711.235 243.9,709.148 C248.055,700.857 252.495,692.705 256.471,684.331 C258.522,680.011 259.989,675.387 261.431,670.81 C268.605,648.035 273.565,624.757 277.087,601.155 C280.33,579.421 282.385,557.579 283.508,535.635 C283.783,530.261 284.639,524.917 285.254,519.325 C284.941,519.06 284.545,518.635 284.069,518.334 C264.026,505.654 251.273,487.44 243.885,465.212 C239.343,451.546 236.994,437.457 235.988,423.106 C234.682,404.475 236.205,386.043 239.458,367.707 C239.657,366.586 239.684,365.435 239.828,363.895 C237.019,364.459 234.538,364.959 232.056,365.456 C216.93,368.485 201.66,370.2 186.227,370.047 C162.066,369.807 139.823,363.123 120.218,348.916 C109.887,341.43 101.987,331.678 97.794,319.334 C97.38,318.115 96.996,316.868 96.777,315.603 C95.777,309.821 97.533,302.542 106.064,299.981 C108.291,299.313 110.548,298.749 112.913,298.104 C105.996,269.956 104.23,241.833 109.612,213.002 C108.345,212.787 107.104,212.701 105.941,212.355 C102.704,211.388 99.375,210.584 96.32,209.195 C93.88,208.084 92.161,205.941 91.575,202.936 C101.715,207.375 106,208.321 110.989,207.194 C111.805,204.375 112.646,201.468 113.562,198.303 C112.324,197.548 111.146,196.851 109.99,196.12 C104.483,192.639 101.447,187.848 102.095,181.127 C102.162,180.43 102.306,179.736 102.471,179.055 C102.573,178.638 102.784,178.246 103.147,177.345 C105.21,184.419 108.565,189.975 115.281,193.147 C116.721,189.91 118.234,186.864 119.383,183.686 C119.687,182.844 119.06,181.487 118.529,180.554 C116.584,177.131 114.962,173.617 115.382,169.573 C115.569,167.774 116.18,166.018 117.23,164.304 C117.758,166.573 118.065,168.926 118.878,171.089 C119.68,173.221 120.994,175.16 122.45,177.865 C128.269,168.228 135.765,160.993 143.111,152.851 C137.568,151.143 132.412,150.168 127.216,151.146 C117.98,152.884 109.014,155.617 100.217,159.008 C82.395,165.879 72.622,179.357 68.156,197.299 C65.95,206.163 66.018,215.241 66.22,224.279 C66.39,231.893 67.009,239.477 67.852,247.074 C68.695,254.673 67.396,262.319 63.803,269.318 C63.217,270.459 62.502,271.565 61.68,272.55 C55.179,280.345 40.254,287.72 26.531,282.889 C18.834,280.18 13.12,275.282 9.763,267.777 C6.142,259.683 4.936,251.102 5.106,242.346 C5.248,235.035 6.581,227.886 9.272,220.902 C10.719,221.278 10.828,222.597 11.31,223.547 C14.3,229.445 17.744,235.008 22.561,239.633 C27.106,243.998 32.619,246.292 39.418,247.775 C38.323,246.457 37.772,245.619 37.056,244.957 C23.098,232.048 14.571,215.614 7.014,198.573 C4.336,192.534 2.756,186.159 1.857,179.606 C1.64,178.027 0.977,176.509 0.519,174.963 C0.519,170.498 0.519,166.033 0.519,161.568 C0.992,160.041 1.675,158.545 1.905,156.982 C3.692,144.813 7.738,133.565 15.301,123.743 C18.306,119.839 21.384,115.988 24.53,112.198 C31.713,103.547 40.571,97.253 50.939,92.826 C64.859,86.882 79.074,83.924 94.163,86.922 C96.08,87.303 98.002,87.661 100.048,88.054 C101.123,85.118 102.07,82.482 103.054,79.859 C104.528,75.924 106.767,72.491 110.249,70.083 C116.18,65.98 122.777,64.354 129.951,65.351 C136.238,66.224 141.707,69.24 147.242,72.071 C148.104,72.512 148.988,72.911 150.406,73.591 C149.799,71.999 149.394,71.051 149.074,70.076 C147.836,66.292 146.344,62.564 145.449,58.699 C140.012,35.213 151.463,13.768 174.041,5.34 C178.625,3.629 183.516,2.722 188.285,1.525 C190.533,0.961 192.828,0.585 195.101,0.124 C199.566,0.124 204.031,0.124 208.497,0.124 C210.765,0.598 213.028,1.096 215.301,1.543 C231.959,4.822 246.679,11.813 258.729,24.02 C263.499,28.853 267.077,34.452 269.94,40.557 C275.457,52.32 278.856,64.764 281.778,77.36 C282.355,79.845 282.903,82.336 283.543,85.173 C285.212,84.019 285.677,82.4 286.53,81.086 C290.233,75.382 293.663,69.477 297.687,64.009 C306.915,51.473 320.019,45.619 335.041,43.91 C353.984,41.755 370.79,47.422 385.619,59.137 C397.525,68.543 406.421,80.454 413.458,93.776 C422.88,111.611 428.951,130.532 430.99,150.641 C432.43,164.848 432.543,179.033 428.803,192.981 C425.678,204.64 420.392,215.122 411.703,223.7 C411.385,224.014 411.158,224.421 410.556,225.232 C412.173,225.398 413.41,225.473 414.631,225.661 C418.337,226.231 422.109,226.563 425.726,227.492 C441.683,231.591 452.289,241.978 457.725,257.111 C466.504,281.555 467.037,306.305 458.045,330.93 C454.439,340.808 448.893,349.428 440.642,356.143 C440.287,356.433 439.986,356.792 439.677,357.135 C439.614,357.207 439.631,357.352 439.598,357.533 C444.812,358.698 450.123,359.558 455.223,361.115 C460.335,362.676 465.236,364.931 470.435,366.962 C471.266,362.976 472.034,358.974 472.938,355.003 C478.545,330.388 488.342,307.642 504.212,287.885 C529.725,256.124 562.524,235.602 602.04,225.806 C609.569,223.939 617.206,222.733 624.957,222.107 C638.213,221.037 650.902,223.346 663.304,227.865 C676.499,232.673 688.547,239.348 698.265,249.657 C713.289,265.595 719.984,284.436 717.717,306.376 C716.634,316.861 713.85,326.879 710.14,336.688 C709.734,337.762 709.344,338.843 708.718,340.544 C709.981,339.835 710.739,339.44 711.465,338.997 C728.249,328.742 746.386,324.94 765.831,327.894 C777.53,329.67 787.301,335.258 795.197,344.016 C805.491,355.433 812.346,368.616 815.083,383.825 C815.535,386.339 815.841,388.879 816.215,391.406 C816.218,396.338 816.218,401.273 816.218,406.208 Z M414.099,673.019 C427.639,624.631 423.113,578.048 399.31,533.327 C398.212,533.484 396.941,533.623 395.688,533.858 C394.341,534.111 393.013,534.456 391.565,534.786 C408.24,579.569 413.422,625.889 414.099,673.019 Z" id="Shape" fill="#000000" fill-rule="nonzero"></path>
	<path d="M487.886,541.988 C488.148,539.277 488.335,537.331 488.55,535.11 C493.503,535.068 498.1,535.957 502.352,537.88 C503.825,538.546 504.915,540.563 505.688,542.195 C511.973,555.477 517.247,569.158 521.642,583.183 C528.408,604.771 532.759,626.857 534.817,649.356 C536.186,664.32 536.925,679.337 536.049,694.388 C535.867,697.517 536.217,700.681 536.386,703.826 C536.79,711.388 536.075,718.809 533.975,726.115 C531.967,733.098 527.503,737.274 520.471,739.019 C512.673,740.954 504.757,741.869 496.764,742.013 C483.614,742.251 470.452,742.471 457.339,741.107 C454.31,740.792 451.273,740.377 448.301,739.724 C443.584,738.69 442.11,736.174 443.186,731.471 C443.342,730.788 443.546,730.101 443.841,729.468 C447.305,722.023 450.799,714.591 454.262,707.145 C454.752,706.089 455.202,704.999 455.526,703.884 C460.84,685.554 464.13,666.905 465.185,647.81 C466.531,623.427 463.777,599.531 457.848,575.926 C457.619,575.016 457.399,574.094 457.057,573.224 C452.35,561.204 447.795,549.121 442.823,537.213 C440.527,531.713 437.453,526.534 434.646,521.255 C432.494,517.207 433.012,517.915 435.115,515.163 C442.836,505.062 448.747,494.079 451.235,481.471 C452.798,473.552 452.835,465.608 451.551,457.651 C451.525,457.488 451.297,457.357 450.866,456.888 C450.453,459.893 450.102,462.626 449.699,465.351 C447.477,480.329 442.54,494.238 433.638,506.635 C429.736,512.07 425.177,516.498 418.985,519.431 C409.472,523.937 399.67,527.266 388.906,528.908 C385.45,522.491 382.674,515.566 376.667,510.679 C376.954,511.582 377.196,512.502 377.535,513.387 C388.196,541.205 396.024,569.803 400.869,599.193 C403.141,612.975 404.634,626.856 405.527,640.811 C406.571,657.129 406.661,673.456 405.817,689.758 C405.228,701.113 403.843,712.433 402.656,723.752 C402.217,727.937 401.498,732.113 400.598,736.226 C398.811,744.387 393.697,749.205 385.517,751.089 C378.042,752.81 370.496,753.898 362.858,753.964 C350.411,754.072 337.956,754.025 325.513,753.707 C320.614,753.582 315.733,752.596 310.857,751.913 C309.715,751.753 308.565,751.352 307.52,750.852 C304.77,749.535 303.73,747.929 304.217,744.938 C304.608,742.537 305.34,740.13 306.311,737.897 C308.886,731.977 311.208,725.875 314.476,720.343 C320.911,709.45 323.689,697.38 326.691,685.374 C331.738,665.186 334.942,644.685 336.848,623.958 C338.861,602.064 339.803,580.14 339.124,558.169 C338.712,544.796 337.89,531.435 337.234,518.068 C337.19,517.171 336.991,516.282 336.776,514.773 C333.984,519.444 333.893,524.241 332.612,528.886 C332.006,528.886 331.424,528.99 330.893,528.87 C315.567,525.404 300.843,520.32 287.518,511.84 C269.988,500.684 258.537,484.692 251.459,465.383 C247.275,453.97 244.927,442.139 243.571,430.078 C242.201,417.899 241.974,405.682 243.124,393.516 C244.072,383.483 245.879,373.532 247.249,363.537 C247.488,361.797 248.667,361.377 250.031,360.807 C254.249,359.043 258.429,357.184 262.568,355.243 C264.009,354.567 265.286,353.541 266.36,352.093 C265.629,352.209 264.878,352.257 264.168,352.452 C250.809,356.134 237.376,359.505 223.653,361.536 C203.778,364.478 183.913,365.272 164.171,360.512 C154.541,358.19 145.378,354.586 136.595,350.012 C135.892,349.646 135.245,349.172 134.489,348.695 C137.678,346.699 140.914,345.063 143.676,342.84 C146.584,340.499 147.979,337.103 148.612,333.363 C149.226,329.737 149.005,326.225 147.731,322.643 C147.341,324.405 147.001,326.181 146.553,327.929 C144.262,336.881 137.298,343.042 128.183,344.066 C127.236,344.172 126.016,343.871 125.256,343.308 C116.213,336.617 108.904,328.498 104.92,317.78 C104.399,316.379 104.147,314.815 104.096,313.316 C103.983,309.962 105.622,307.763 108.817,306.737 C111.721,305.804 114.635,304.898 117.568,304.061 C122.275,302.718 125.921,299.924 128.891,296.109 C133.596,290.068 136.306,283.058 138.575,275.881 C147.233,248.491 145.052,221.675 133.959,195.415 C132.043,190.88 129.775,186.495 127.516,181.715 C132.386,170.921 141.465,163.472 150.223,155.573 C164.292,162.351 172.947,174.002 180.471,187.455 C181.184,186.199 181.651,185.587 181.903,184.897 C182.948,182.032 183.81,179.095 184.952,176.271 C189.636,164.697 197.395,155.565 207.753,148.755 C212.937,145.347 218.482,142.465 223.988,139.582 C229.494,136.698 235.536,135.826 241.686,135.513 C255.141,134.828 268.046,137.714 280.832,141.423 C283.949,142.327 287.066,143.227 290.305,144.164 C289.558,149.312 288.874,154.03 288.19,158.747 C288.394,158.819 288.597,158.891 288.801,158.963 C289.175,158.217 289.613,157.496 289.915,156.722 C297.234,137.9 308.058,121.204 321.092,105.916 C324.111,102.374 327.773,99.318 331.426,96.397 C334.963,93.569 335.318,93.793 338.404,96.969 C342.609,101.296 346.077,106.167 348.973,111.44 C356.709,125.525 361.266,140.522 362.545,156.607 C363.707,171.211 361.441,185.399 358.396,199.545 C357.489,203.758 356.3,207.91 355.223,212.159 C345.422,212.785 337.681,217.238 330.267,222.657 C324.639,226.77 319.177,230.931 315.315,236.891 C310.782,243.886 307.266,251.404 306.288,259.629 C305.044,270.089 306.932,280.02 314.511,288.123 C316.833,290.605 319.107,293.131 321.549,295.795 C321.239,295.998 320.651,296.47 319.99,296.801 C316.317,298.641 312.624,300.443 308.941,302.264 C292.682,310.308 282.795,323.733 277.281,340.556 C272.782,354.282 272.655,368.076 278.897,381.419 C283.623,391.52 290.804,399.729 299.848,406.164 C304.225,409.279 309.088,411.713 313.733,414.452 C314.311,414.792 314.903,415.106 316.247,415.855 C312.857,416.241 310.241,416.41 307.671,416.851 C295.729,418.905 287.25,427.08 287.735,439.342 C288.083,448.116 291.688,455.447 298.699,460.923 C305.609,466.319 313.511,469.576 322.094,470.947 C341.976,474.123 360.08,469.644 376.338,457.753 C376.615,457.55 376.849,457.284 377.08,457.027 C377.135,456.966 377.099,456.824 377.122,456.378 C362.481,456.588 348.729,453.274 336.072,445.953 C336.095,445.667 336.118,445.381 336.141,445.094 C337.214,445.094 338.299,444.99 339.357,445.111 C347.292,446.022 355.242,446.673 363.233,446.185 C373.039,445.587 382.191,443.03 390.091,436.888 C391.667,435.662 393.277,434.479 394.843,433.241 C405.571,424.762 410.659,413.399 411.511,400.011 C411.725,396.65 411.412,393.202 410.916,389.858 C410.036,383.913 406.913,379.152 402.338,375.319 C401.085,374.269 399.808,373.246 398.33,372.037 C400.269,370.347 402.474,369.646 404.721,369.414 C410.934,368.772 416.992,367.613 422.904,365.507 C427.072,364.022 431.52,364.409 435.842,364.665 C442.421,365.055 448.892,366.223 455.14,368.416 C472.411,374.479 484.077,386.326 490.589,403.258 C495.201,415.251 498.075,427.674 499.25,440.517 C500.814,457.62 498.258,474.223 493.875,490.661 C491.186,500.754 488.313,510.805 485.937,520.971 C484.906,525.38 484.823,530.027 484.479,534.577 C484.276,537.303 485.628,539.493 487.886,541.988 Z M473.824,456.835 C473.914,455.45 473.853,454.032 474.145,452.691 C474.359,451.705 475.035,450.819 475.541,449.818 C474.307,449.464 473.671,450.121 473.685,451.574 C473.703,453.329 473.782,455.082 473.834,456.836 C474.539,457.357 475.244,457.876 475.914,458.37 C478.721,455.892 479.376,451.302 477.633,447.336 C477.845,446.059 477.756,444.874 476.337,443.376 C476.939,445.108 477.315,446.189 477.691,447.27 C477.897,450.789 478.932,454.436 476.382,457.524 C475.338,457.255 474.571,457.057 473.824,456.835 Z M470.24,427.82 C469.931,429.939 470.793,431.719 472.021,433.393 C471.41,431.557 470.797,429.721 470.185,427.886 C469.736,423.756 468.618,419.653 469.556,415.497 C470.436,415.304 471.162,415.143 472.079,414.94 C471.256,412.774 470.491,410.946 469.875,409.069 C469.558,408.099 469.161,406.954 469.394,406.039 C470.263,402.62 469.713,399.26 469.218,395.913 C468.106,388.387 465.431,381.439 461.044,375.192 C459.968,373.66 458.774,372.241 456.593,372.109 C454.901,374.682 454.612,377.433 454.851,380.255 C455.44,387.214 457.239,393.883 460.346,400.119 C461.88,403.196 463.042,406.683 466.492,408.428 C466.832,408.6 467.105,409.154 467.177,409.571 C467.734,412.83 468.277,416.092 468.738,419.366 C469.137,422.201 468.616,425.194 470.24,427.82 Z M292.918,196.546 C291.118,206.196 286.776,213.549 278.904,217.754 C274.98,214.509 271.807,211.03 267.913,208.821 C254.598,201.265 240.45,200.006 226.228,205.774 C207.571,213.34 193.179,225.888 184.83,244.512 C176.618,262.83 173.887,281.45 182.52,300.614 C187.226,311.061 193.877,319.175 205.178,322.733 C213.929,325.488 222.524,324.719 231.14,322.014 C234.803,320.864 237.521,318.776 239.706,315.686 C244.016,309.589 247.074,302.778 249.457,295.866 C255.893,277.199 254.871,258.42 248.29,239.943 C245.728,232.749 241.381,226.605 235.51,221.653 C231.08,217.916 226.097,215.489 220.102,215.743 C219.51,215.768 218.909,215.559 218.012,215.408 C226.128,209.394 240.291,205.137 251.765,207.673 C258.434,209.146 264.433,211.855 269.574,216.412 C277.047,223.036 280.336,231.633 281.195,241.296 C281.492,244.638 281.242,248.029 281.242,251.26 C290.95,254.856 305.154,249.877 305.388,240.069 C297.842,246.132 292.207,248.14 285.247,247.04 C285.247,243.889 285.247,240.661 285.247,237.087 C296.583,235.572 305.713,230.929 307.493,217.796 C301.539,225.626 294.489,231.554 284.071,232.008 C282.969,228.67 281.953,225.589 280.966,222.597 C293.687,213.005 297.201,205.648 292.918,196.546 Z M488.811,454.685 C488.618,452.982 488.536,451.957 488.38,450.945 C487.942,448.086 488.04,445.435 490.09,443.028 C490.948,442.019 491.341,440.505 491.647,439.152 C493.204,432.263 493.011,425.365 491.014,418.617 C490.298,416.198 488.982,413.878 487.559,411.769 C486.261,409.845 484.274,409.985 482.961,411.94 C482.201,413.073 481.646,414.461 481.406,415.806 C479.991,423.766 479.854,431.81 482.554,439.448 C484.048,443.675 485.562,447.453 482.395,451.833 C484.662,452.84 486.486,453.651 488.811,454.685 Z M465.637,459.623 C470.678,455.237 470.656,455.246 468.69,449.811 C468.387,448.976 468.079,447.932 468.315,447.148 C469.512,443.186 469.045,439.201 468.52,435.265 C467.738,429.387 465.969,423.799 462.276,419.023 C461.433,417.933 460.373,416.912 459.204,416.199 C457.6,415.221 456.186,415.761 455.584,417.561 C455.109,418.981 454.882,420.53 454.815,422.033 C454.512,428.953 456.057,435.534 458.627,441.919 C460.134,445.663 461.827,449.233 465.638,450.875 C465.637,453.817 465.637,456.471 465.637,459.623 Z M325.786,209.878 C341.531,194.194 345.482,152.007 338.893,137.425 C339.838,162.806 334.952,186.472 325.786,209.878 Z M277.231,313.344 C277.945,308.021 275.906,304.195 271.259,302.043 C268.948,300.973 266.414,300.281 263.909,299.764 C261.336,299.232 260.626,299.906 259.562,303.04 C267.434,302.998 273.282,306.452 277.231,313.344 Z M267.423,292.842 C274.066,291.562 279.66,293.44 284.595,298.658 C283.123,292.344 279.169,289 273.286,288.477 C269.414,288.134 269.055,288.38 267.423,292.842 Z M259.197,323.589 C264.052,317.526 261.96,311.097 254.344,307.126 C253.372,307.864 252.384,308.613 251.105,309.584 C256.89,312.778 259.811,317.019 259.197,323.589 Z M121.77,319.115 C123.699,322.113 125.771,323.406 128.437,323.678 C130.897,323.929 132.137,323.103 132.874,320.718 C133.503,318.681 133.803,316.587 133.075,314.21 C131.446,320.141 127.531,321.187 121.77,319.115 Z M471.862,476.902 C471.829,476.902 471.797,476.901 471.763,476.9 C471.796,477.588 471.828,478.275 471.862,478.962 C471.862,478.276 471.862,477.59 471.862,476.902 Z" id="Shape" fill="#FFFFFF"></path>
	<path d="M290.134,522.164 C303.826,528.56 317.449,533.544 331.887,536.52 C331.887,540.603 331.933,544.464 331.879,548.325 C331.666,563.474 331.826,578.642 331.109,593.769 C329.366,630.562 324.639,666.937 314.306,702.419 C313.719,704.435 312.937,706.411 312.059,708.321 C309.753,713.335 307.324,718.291 304.99,723.292 C304.359,724.646 303.7,725.571 301.936,725.675 C286.442,726.583 270.959,726.966 255.515,724.99 C253.672,724.755 251.805,724.301 250.082,723.612 C247.675,722.649 246.796,721.157 247.242,718.61 C247.601,716.56 248.241,714.494 249.134,712.614 C251.903,706.782 254.439,700.779 257.822,695.309 C263.957,685.386 267.091,674.37 270.414,663.41 C277.14,641.233 281.661,618.583 284.672,595.612 C286.702,580.126 288.246,564.601 288.87,548.991 C289.184,541.132 289.492,533.272 289.818,525.413 C289.856,524.507 289.991,523.604 290.134,522.164 Z" id="Shape" fill="#FFFFFF"></path>
	<path d="M441.043,717.885 C430.883,717.8 421.197,717.45 411.362,715.749 C411.362,714.564 411.3,713.65 411.373,712.746 C411.719,708.42 412.388,704.097 412.396,699.77 C412.405,694.893 414.722,691.036 416.931,687.04 C417.719,685.613 418.571,684.175 419.059,682.636 C424.19,666.465 427.444,649.961 428.514,632.982 C429.917,610.715 427.322,588.947 421.411,567.511 C420.946,565.828 420.22,564.211 419.53,562.6 C415.196,552.469 410.838,542.349 406.435,532.105 C413.806,529.066 420.988,526.105 428.532,522.996 C429.856,525.391 431.613,527.926 432.739,530.715 C437.261,541.92 441.376,553.293 446.042,564.435 C452.237,579.227 454.77,594.811 456.781,610.539 C458.304,622.446 458.618,634.42 458.058,646.393 C457.193,664.869 454.335,683.068 448.848,700.735 C447.024,706.609 443.752,712.038 441.043,717.885 Z" id="Shape" fill="#FFFFFF"></path>
	<path d="M646.65,403.182 C652.317,400.358 657.899,397.35 663.667,394.751 C673.928,390.127 684.654,387.268 696.003,387.207 C709.388,387.136 720.924,391.828 731.136,400.398 C742.313,409.78 746.739,422.064 747.305,436.146 C748.204,458.508 740.154,477.771 726.426,494.884 C712.942,511.696 695.143,522.318 675.131,529.572 C663.17,533.908 650.815,536.663 638.284,538.713 C637.943,538.769 637.609,538.877 636.674,539.11 C638.006,539.755 638.856,540.295 639.784,540.596 C648.713,543.499 654.772,549.649 658.906,557.797 C668.901,577.504 665.512,602.826 648.513,619.09 C645.558,621.917 642.122,624.239 638.964,626.861 C637.34,628.209 635.743,628.218 633.776,627.593 C616.771,622.192 602.491,612.786 590.898,599.176 C583.23,590.174 576.449,580.707 572.25,569.524 C562.638,543.928 565.438,519.543 579.099,496.145 C582.789,489.825 587.331,484.143 592.199,478.707 C592.659,478.192 593.209,477.758 593.82,477.191 C596.674,478.704 599.454,480.192 602.247,481.656 C623.385,492.731 645.034,492.76 666.944,484.368 C674.46,481.49 680.556,476.522 685.146,469.855 C689.287,463.839 690.585,457.465 687.266,450.589 C685.103,446.11 681.512,443.256 677.006,441.429 C670.435,438.765 663.537,438.292 656.574,438.672 C635.053,439.845 616.44,447.657 601.251,463.17 C598.786,465.688 596.285,468.171 593.797,470.665 C593.718,470.745 593.598,470.783 593.262,470.975 C592.586,470.652 591.741,470.311 590.957,469.862 C577.903,462.363 566.034,453.438 557.059,441.15 C548.456,429.371 544.123,416.173 544.897,401.545 C545.565,388.928 549.318,377.123 555.229,365.985 C563.302,350.773 574.286,337.821 586.462,325.803 C587.71,324.571 589.204,323.593 590.528,322.433 C591.281,321.773 591.922,320.984 593.024,319.818 C588.833,319.152 585.248,319.43 581.698,319.573 C562.499,320.35 545.306,327.119 529.335,337.393 C513.019,347.888 499.537,361.332 488.279,377.072 C487.541,378.104 486.763,379.11 486.001,380.132 C483.908,378.17 481.964,376.346 480.029,374.533 C483.023,364.576 486.703,355.201 491.079,346.097 C500.482,326.535 512.578,308.887 528.611,294.136 C546.07,278.075 566.098,266.731 589.534,262.008 C603.093,259.276 616.588,259.529 629.886,263.762 C637.746,266.265 644.528,270.573 650.761,275.882 C660.276,283.986 668.213,293.302 673.136,304.917 C680.119,321.392 679.63,338.071 674.231,354.824 C669.748,368.735 662.402,381.12 653.764,392.797 C651.273,396.164 648.712,399.481 646.184,402.82 C646.339,402.942 646.495,403.062 646.65,403.182 Z" id="Shape" fill="#FFFFFF"></path>
	<path d="M695.529,357.955 C697.703,355.669 699.855,353.363 702.061,351.109 C702.868,350.285 703.693,349.38 704.691,348.86 C716.288,342.81 728.264,337.753 741.215,335.378 C750.072,333.754 758.928,333.42 767.764,335.614 C775.595,337.558 782.452,341.286 788.035,347.093 C803.554,363.238 810.527,382.655 809.001,404.892 C807.705,423.759 801.27,441.065 791.341,457.09 C781.451,473.054 768.656,486.388 754.05,498.069 C752.321,499.452 750.619,500.868 748.617,502.504 C751.758,504.53 754.635,506.317 757.439,508.209 C769.924,516.627 778.709,527.741 781.584,542.776 C784.894,560.084 780.75,575.626 769.498,589.203 C764.548,595.177 759.11,600.684 752.879,605.923 C752.158,604.695 751.5,603.63 750.896,602.534 C744.725,591.355 736.257,582.389 724.907,576.457 C717.094,572.372 708.672,570.375 699.778,571.175 C691.167,571.95 684.098,580.075 684.574,588.531 C684.764,591.923 686.179,594.887 688.117,597.596 C692.857,604.225 699.339,608.634 706.879,611.33 C718.712,615.561 730.773,615.762 742.907,612.485 C745.04,611.909 747.238,611.573 749.587,611.089 C752.304,617.792 753.088,624.34 750.388,631.046 C748.699,635.242 746.236,638.95 743.034,642.128 C736.451,648.662 728.593,653.279 721.007,656.931 C719.489,656.471 718.583,655.872 717.837,656.032 C715.838,656.458 713.963,657.43 713.391,659.578 C712.816,661.734 713.235,663.849 715.068,665.341 C716.329,666.365 717.683,667.353 719.143,668.042 C725.591,671.087 732.377,671.715 739.427,670.941 C751.826,669.581 763.162,665.489 773.395,658.345 C773.663,658.157 774.015,658.089 774.682,657.824 C774.506,658.584 774.486,659.14 774.257,659.593 C768.727,670.515 761.13,679.655 750.554,685.979 C738.583,693.135 725.604,695.905 711.692,694.163 C704.179,693.223 696.954,691.305 690.051,688.21 C686.169,686.47 682.526,684.318 679.572,681.198 C674.342,675.675 672.434,669.264 674.294,661.75 C676.255,653.826 681.033,647.89 687.258,642.992 C692.19,639.112 697.718,636.279 703.772,634.526 C704.193,634.404 704.579,634.159 705.601,633.68 C683.483,634.614 662.112,634.583 640.946,629.5 C641.185,627.951 642.558,627.549 643.508,626.846 C651.897,620.643 658.65,613.043 662.554,603.312 C668.907,587.476 668.793,571.696 661.036,556.285 C657.756,549.767 652.959,544.508 646.148,540.314 C647.467,539.891 648.243,539.557 649.053,539.394 C667.24,535.724 684.714,530.091 700.716,520.478 C722.61,507.325 737.947,488.799 746.069,464.505 C750.519,451.193 751.181,437.595 748.339,423.851 C745.801,411.58 738.678,402.391 728.777,395.131 C717.166,386.617 704.147,383.485 689.885,384.865 C679.459,385.875 669.713,389.088 660.272,393.43 C659.042,393.996 657.77,394.477 656.179,394.545 C656.805,393.618 657.416,392.683 658.059,391.768 C666.395,379.877 673.515,367.357 677.58,353.311 C683.626,332.42 682.088,312.355 670.173,293.766 C662.181,281.298 651.721,271.217 638.406,264.507 C626.795,258.655 614.294,257.164 601.42,257.991 C572.531,259.849 548.587,272.669 527.55,291.607 C507.059,310.054 493.079,332.986 482.869,358.371 C481.38,362.071 480.122,365.865 478.741,369.609 C478.425,370.466 478.042,371.297 477.691,372.136 C476.051,371.502 475.645,370.538 475.904,368.998 C481.476,335.83 494.694,306.345 518.349,282.076 C543.598,256.171 573.782,238.921 609.36,231.56 C621.738,229 634.232,227.81 646.739,230.63 C662.771,234.245 677.666,240.367 689.922,251.696 C703.014,263.796 710.04,278.843 711.433,296.631 C712.589,311.392 709.159,325.277 703.945,338.871 C702.642,342.268 701.311,345.664 699.777,348.96 C698.404,351.911 696.733,354.723 695.193,357.596 C695.303,357.719 695.416,357.837 695.529,357.955 Z" id="Shape" fill="#FFFFFF"></path>
	<path d="M376.441,216.117 C371.798,213.579 366.973,213.182 362.073,212.057 C362.308,211.087 362.448,210.198 362.739,209.361 C366.145,199.546 367.871,189.372 369.071,179.105 C369.3,177.145 370.064,176.059 371.574,174.874 C375.158,172.061 378.851,169.244 381.846,165.851 C388.552,158.255 389.264,149.692 384.698,140.673 C384.066,139.425 383.436,138.176 382.821,136.92 C382.784,136.845 382.885,136.702 382.988,136.389 C400.972,135.469 408.944,124.336 411.396,106.928 C412.19,108.359 412.675,109.058 412.988,109.827 C417.566,121.084 420.403,132.795 422.124,144.805 C423.343,153.312 423.836,161.858 423.475,170.435 C422.809,186.189 418.86,201.008 410.527,214.522 C406.301,221.375 400.574,226.312 392.669,228.468 C391.934,228.669 391.247,229.048 390.611,229.838 C392.765,230.046 394.924,230.209 397.072,230.468 C405.33,231.467 413.586,232.491 421.841,233.515 C424.816,233.884 426.859,235.421 428.593,237.946 C434.631,246.741 439.711,255.938 441.517,266.598 C442.856,274.504 442.262,282.269 439.212,289.769 C435.95,297.792 429.93,302.175 421.446,303.435 C413.338,304.639 405.58,302.881 397.879,300.729 C394.407,299.758 391.01,298.521 387.113,297.254 C388.054,298.326 388.705,299.076 389.365,299.817 C393.834,304.834 396.237,310.616 396.281,317.418 C396.317,323.006 395.526,328.398 393.528,333.622 C390.89,340.518 386.063,345.127 379.156,347.67 C370.807,350.744 362.178,351.136 353.471,350.237 C348.013,349.673 342.601,348.662 336.916,348.209 C337.92,348.878 338.919,349.555 339.928,350.216 C345.535,353.891 351.033,357.716 355.689,362.589 C362.845,370.077 366.46,378.942 365.98,389.392 C365.597,397.702 361.756,403.871 354.663,408.103 C350.338,410.683 345.56,412.016 340.638,412.402 C334.93,412.849 329.174,412.848 323.443,412.77 C321.663,412.746 319.718,412.15 318.155,411.271 C312.944,408.342 307.585,405.554 302.795,402.017 C282.556,387.073 275.831,364.197 284.342,340.375 C288.311,329.269 295.019,320.05 303.867,312.374 C310.182,306.895 317.429,302.761 324.217,298.625 C328.65,301.992 332.717,305.334 337.037,308.308 C345.321,314.009 354.714,316.344 364.649,316.408 C367.148,316.424 369.781,315.719 372.128,314.783 C377.253,312.74 378.316,308.112 374.953,303.647 C372.79,300.776 370.055,298.521 366.827,297.044 C364.182,295.834 361.383,294.782 358.541,294.211 C350.182,292.53 341.739,293.004 333.313,293.784 C332.614,293.849 331.923,293.997 331.225,294.063 C325.864,294.573 325.815,294.611 322.3,290.46 C314.954,281.785 312.587,271.682 313.834,260.547 C315.126,249.011 321.312,240.269 329.593,232.703 C330.373,231.991 331.267,231.392 331.99,230.63 C339.552,222.66 349.296,219.209 359.741,217.267 C364.81,216.325 369.907,215.454 375.1,216.334 C375.381,216.382 375.696,216.244 376.441,216.117 Z" id="Shape" fill="#FFFFFF"></path>
	<path d="M193.432,107.482 C194.707,106.992 195.966,106.453 197.26,106.023 C201.267,104.691 205.234,103.33 209.619,104.211 C213.452,104.981 216.317,106.98 218.318,110.232 C221.804,115.898 222.041,121.964 220.302,128.223 C220.083,129.013 219.748,129.771 219.52,130.559 C218.797,133.05 217.353,134.697 214.909,135.898 C199.276,143.577 188.744,156.196 181.022,171.452 C180.604,172.279 180.331,173.179 179.804,174.517 C178.851,173.315 178.014,172.284 177.203,171.234 C166.519,157.401 152.795,148.557 135.541,145.005 C124.765,142.787 114.761,145.188 105.009,149.1 C95.828,152.783 87.318,157.886 79.478,163.912 C72.423,169.335 67.622,176.526 64.89,185.051 C62.116,193.707 60.231,202.466 60.604,211.664 C61.032,222.218 60.85,232.802 61.473,243.341 C61.775,248.446 61.804,253.392 60.412,258.301 C59.078,263.01 56.753,267.179 53.414,270.779 C47.837,276.791 41.083,279.215 33.04,277.201 C25.956,275.427 19.501,272.508 15.214,266.148 C12.529,262.166 11.02,257.712 10.498,253.016 C9.771,246.468 9.826,239.89 10.905,233.357 C10.972,232.948 11.134,232.555 11.385,231.705 C12.153,232.809 12.643,233.565 13.184,234.282 C15.442,237.279 17.556,240.403 20.015,243.226 C26.657,250.85 35.298,253.335 45.092,252.375 C46.744,252.213 48.338,251.45 50.009,250.538 C44.626,249.81 42.12,245.578 39.137,242.187 C31.078,233.028 25.293,222.397 20.046,211.465 C15.465,201.922 11.376,192.185 9.391,181.718 C7.288,170.629 7.251,159.509 9.943,148.534 C10.881,144.708 12.422,140.883 14.422,137.491 C23.748,121.667 36.195,108.993 52.876,100.854 C62.831,95.998 73.486,93.834 84.451,93 C87.488,92.77 90.539,92.583 93.582,92.607 C95.671,92.624 97.756,93.037 100.061,93.297 C100.498,95.274 100.905,97.206 101.355,99.129 C103.301,107.441 106.039,115.404 111.942,121.853 C115.481,125.719 119.566,128.666 124.856,129.933 C133.968,132.115 138.622,123.952 137.603,117.675 C137.165,114.976 136.055,112.211 134.598,109.885 C129.525,101.784 122.472,95.936 113.456,92.583 C110.616,91.527 107.737,90.577 104.565,89.47 C104.886,88.201 105.086,87.079 105.453,86.014 C108.126,78.237 115.83,71.801 123.378,71.634 C129.017,71.509 134.554,72.709 139.922,74.553 C145.746,76.553 151.088,79.439 156.099,82.996 C158.644,84.803 161.291,86.468 164.097,87.993 C163.248,85.289 162.549,82.613 160.048,80.914 C159.296,80.403 158.582,79.698 158.119,78.921 C152.731,69.879 149.105,60.261 149.883,49.56 C150.195,45.276 151.395,41.043 152.39,36.834 C152.592,35.98 153.549,35.07 154.39,34.638 C161.567,30.955 169.165,29.275 177.223,30.448 C183.029,31.294 187.789,34.179 191.683,38.512 C197.205,44.657 200.05,52.075 201.416,60.054 C204.125,75.878 201.581,90.887 193.898,105.007 C193.567,105.616 193.278,106.247 192.969,106.868 C193.125,107.073 193.278,107.277 193.432,107.482 Z" id="Shape" fill="#FFFFFF"></path>
	<path d="M239.729,89.627 C242.196,85.838 244.488,82.583 246.506,79.165 C251.788,70.22 255.017,60.623 255.044,50.131 C255.065,42.148 253.44,34.519 249.752,27.384 C249.437,26.775 249.165,26.144 248.801,25.371 C251.339,26.539 253.485,28.579 256.261,31.978 C266.105,44.028 272.261,57.914 276.241,72.787 C278.417,80.916 279.917,89.227 281.705,97.38 C281.621,97.457 281.938,97.306 282.019,97.072 C287.029,82.588 303.144,64.324 317.452,56.947 C333.956,48.436 350.611,48.764 367.325,56.227 C377.826,60.915 386.359,68.194 393.736,76.892 C399.225,83.364 403.908,90.4 407.747,97.965 C408.508,99.465 408.894,101.288 408.966,102.982 C409.198,108.571 408.198,113.989 405.842,119.081 C401.603,128.242 394.404,133.099 384.3,133.558 C382.318,133.648 380.328,133.571 378.249,133.571 C377.872,135.159 379.079,135.838 379.669,136.72 C382.647,141.173 385.034,145.794 385.028,151.361 C385.025,154.619 384.306,157.63 382.745,160.472 C379.842,165.759 375.501,169.573 369.979,173.115 C369.924,171.69 369.825,170.725 369.858,169.765 C370.487,151.531 367.438,133.983 359.904,117.314 C356.02,108.721 351.284,100.611 344.979,93.537 C343.119,91.45 340.944,89.618 338.771,87.843 C337.013,86.407 335.066,86.276 332.868,87.289 C328.424,89.336 324.551,92.156 321.118,95.56 C309.58,107 300.203,119.957 293.81,134.972 C293.494,135.714 293.142,136.441 292.68,137.45 C289.719,136.318 286.864,135.326 284.088,134.146 C277.969,131.543 271.34,131.273 264.948,129.978 C260.149,129.005 255.178,128.889 250.286,128.362 C249.385,128.265 248.498,128.027 247.234,127.782 C248.448,126.179 249.439,124.897 250.402,123.594 C253.639,119.215 256.529,114.613 257.23,109.104 C257.579,106.364 257.631,103.455 257.108,100.76 C255.774,93.871 250.293,89.653 243.259,89.626 C242.227,89.624 241.191,89.627 239.729,89.627 Z" id="Shape" fill="#FFFFFF"></path>
	<path d="M347.886,352.344 C352.983,352.607 358.114,353.287 363.198,353.035 C370.2,352.688 377.214,352.026 383.598,348.46 C391.523,344.033 396.021,337.265 397.994,328.591 C399.154,323.495 399.045,318.322 398.824,313.163 C398.685,309.923 397.267,307.051 395.541,304.347 C394.985,303.477 394.407,302.621 393.443,301.156 C395.463,301.841 396.852,302.299 398.233,302.782 C404.24,304.887 410.367,306.491 416.768,306.588 C428.884,306.77 437.059,301.436 441.89,290.329 C446.121,280.6 445.861,270.709 442.889,260.739 C440.828,253.827 437.618,247.439 433.908,241.286 C433.184,240.086 432.452,238.891 431.362,237.1 C432.593,237.556 433.3,237.713 433.901,238.057 C441.207,242.234 446.159,248.543 449.764,255.969 C453.388,263.434 455.151,271.46 456.381,279.608 C458.882,296.165 457.588,312.383 451.721,328.124 C448.121,337.78 442.669,346.197 434.075,352.168 C431.11,354.228 427.905,356.155 424.531,357.372 C413.106,361.493 401.353,364.372 389.105,364.02 C384.211,363.879 379.343,362.847 374.463,362.222 C373.568,362.108 372.671,362.002 371.761,361.89 C376.494,364.596 381.34,366.982 385.751,370.001 C389.79,372.765 393.703,375.889 397.062,379.432 C403.165,385.869 405.643,393.607 404.698,402.653 C402.959,419.301 389.394,435.49 373.193,438.176 C367.196,439.171 361.114,439.901 355.046,440.166 C344.958,440.607 334.87,440.093 324.828,438.92 C324.402,438.87 323.949,439.04 322.916,439.2 C325.791,443.895 329.267,447.507 333.289,450.637 C337.433,453.863 342.131,456.001 347.223,457.136 C352.243,458.254 357.329,459.081 362.437,460.045 C362.278,460.24 362.125,460.622 361.868,460.715 C346.175,466.402 330.388,468.325 314.574,461.323 C310.954,459.719 307.442,457.7 304.233,455.384 C299.156,451.72 296.281,446.516 295.384,440.304 C294.86,436.679 295.628,433.34 297.814,430.312 C302.128,424.333 308.227,421.793 315.291,421.08 C318.674,420.738 322.063,420.351 325.458,420.259 C327.893,420.192 330.337,420.628 332.783,420.744 C334.581,420.83 336.387,420.761 338.235,420.483 C335.426,417.976 331.662,417.683 328.327,415.705 C329.573,414.832 330.845,415.197 331.998,415.168 C339.55,414.978 346.987,414.188 353.994,411.081 C358.146,409.239 361.724,406.651 364.412,402.932 C368.249,397.62 369.394,391.57 368.846,385.222 C367.793,373.013 361.621,363.629 352.231,356.13 C350.774,354.967 349.334,353.785 347.896,352.599 C347.835,352.551 347.886,352.373 347.886,352.344 Z" id="Shape" fill="#FFFFFF"></path>
	<path d="M154.812,31.624 C159.002,22.964 165.068,17.337 172.895,13.503 C179.183,10.423 185.918,8.83 192.805,7.955 C206.917,6.161 220.262,8.917 233.217,14.62 C240.704,17.915 245.556,23.473 248.689,30.657 C254.233,43.372 253.736,56.23 248.829,69.028 C245.595,77.464 240.558,84.791 234.697,91.592 C234.008,92.392 233.308,93.184 232.637,93.999 C232.497,94.169 232.463,94.426 232.159,95.22 C233.851,94.569 235.141,93.886 236.514,93.584 C239.121,93.011 241.775,92.303 244.413,92.286 C249.398,92.254 252.985,95.214 254.473,100.079 C255.76,104.288 255.288,108.426 253.802,112.497 C251.836,117.883 248.537,122.427 244.743,126.633 C244.167,127.272 243.225,127.892 242.409,127.955 C235.626,128.475 228.974,129.603 222.032,132.349 C222.471,130.782 222.74,129.828 223.005,128.873 C224.415,123.792 224.857,118.616 223.046,113.625 C219.252,103.169 212.92,100.092 202.469,102.074 C201.217,102.312 199.988,102.673 198.289,103.089 C198.655,102.001 198.869,101.178 199.201,100.406 C203.524,90.353 205.872,79.885 205.448,68.918 C205.085,59.537 203.083,50.545 198.03,42.459 C190.217,29.955 178.071,25.094 163.814,28.795 C161.012,29.521 158.283,30.524 154.812,31.624 Z" id="Shape" fill="#FFFFFF"></path>
	<path d="M595.922,474.693 C602.33,467.951 608.79,462.221 615.924,457.249 C628.71,448.336 643.013,444.089 658.466,443.439 C663.286,443.237 668.082,443.655 672.721,445.077 C684.246,448.611 687.535,458.994 680.082,468.506 C674.355,475.815 666.572,479.952 657.789,482.409 C639.565,487.507 621.826,485.809 604.503,478.535 C601.817,477.407 599.183,476.157 595.922,474.693 Z" id="Shape" fill="#FFFFFF"></path>
	<path d="M748.804,606.254 C743.979,607.306 739.679,608.399 735.322,609.16 C726.732,610.661 718.298,609.656 710.009,607.134 C704.172,605.357 699.15,602.213 694.857,597.912 C693.787,596.841 692.841,595.627 691.948,594.399 C685.621,585.696 693.086,577.176 699.789,576.216 C701.4,575.986 703.068,575.928 704.692,576.04 C719.709,577.088 731.501,584.409 741.461,595.167 C744.315,598.253 746.773,601.654 748.804,606.254 Z" id="Shape" fill="#FFFFFF"></path>
	<path d="M102.936,93.12 C104.029,93.268 104.832,93.265 105.561,93.493 C115.34,96.554 123.518,102.012 129.825,110.106 C131.244,111.927 132.381,114.044 133.28,116.179 C134.99,120.246 132.19,125.567 126.762,125.162 C123.448,124.915 120.682,123.552 118.142,121.588 C109.864,115.185 105.124,106.694 103.406,96.441 C103.239,95.437 103.119,94.425 102.936,93.12 Z" id="Shape" fill="#FFFFFF"></path>
	<path d="M329.145,296.861 C330.717,296.598 331.851,296.312 332.999,296.233 C340.869,295.686 348.715,295.892 356.452,297.531 C361.325,298.563 365.841,300.527 369.606,303.887 C370.991,305.123 372.577,306.523 371.972,308.65 C371.344,310.86 369.297,311.373 367.297,311.834 C364.038,312.585 360.783,312.573 357.536,311.873 C348.27,309.874 339.458,306.864 332.256,300.338 C331.474,299.63 330.709,298.901 329.966,298.152 C329.734,297.918 329.599,297.587 329.145,296.861 Z" id="Shape" fill="#FFFFFF"></path>
	<path d="M137.634,244.468 C137.402,246.456 137.375,248.123 136.993,249.705 C135.375,256.408 129.583,258.286 124.563,253.628 C122.788,251.982 121.305,249.911 120.075,247.809 C117.12,242.76 115.624,237.192 115.416,231.374 C115.33,228.96 115.663,226.402 116.422,224.115 C118.175,218.834 123.392,217.485 127.672,221.068 C132.684,225.264 135.002,231.028 136.512,237.151 C137.127,239.641 137.305,242.239 137.634,244.468 Z" id="Shape" fill="#FFFFFF" fill-rule="nonzero"></path>
	<path d="M118.84,270.832 C118.9,267.938 119.786,266.513 121.338,266.061 C123.022,265.57 124.295,266.317 125.335,267.566 C126.608,269.096 127.248,270.928 126.636,272.792 C126.28,273.876 125.293,275.195 124.307,275.505 C123.331,275.812 121.616,275.334 120.911,274.569 C119.794,273.36 119.251,271.623 118.84,270.832 Z" id="Shape" fill="#FFFFFF" fill-rule="nonzero"></path>
	<path d="M205.236,296.959 C208.438,298.201 211.457,296.496 212.044,293.115 C212.636,289.709 210.219,285.455 207.044,284.312 C203.877,283.172 201.024,284.753 200.299,287.754 C200.386,289.133 200.484,290.496 200.592,291.843 C201.396,294.114 203.156,296.153 205.236,296.959 Z" id="Shape" fill="#FFFFFF" fill-rule="nonzero"></path>
	<path d="M269.572,214.412 C264.431,209.855 258.432,207.146 251.763,205.673 C249.723,205.222 247.596,204.995 245.435,204.946 C235.943,205.185 224.627292,210.045453 216.795292,214.803453 C217.162292,214.879453 219.507438,215.31187 219.825438,215.29887 C225.820438,215.04587 230.633802,216.197084 235.062802,219.934084 C240.934802,224.886084 245.726,230.749 248.288,237.943 C254.869,256.42 255.892,275.199 249.455,293.866 C247.072,300.778 244.014,307.59 239.704,313.686 C237.519,316.776 234.801,318.864 231.138,320.014 C226.116,321.591 221.101,322.502 216.058,322.449 C235.016,326.39 258.905,309.011 271.822,280.705 C282.649,256.978 282.618,232.464 273.257,218.237 C272.161,216.901 270.938,215.623 269.572,214.412 Z" id="Shape" stroke="#000000" stroke-width="3" fill="#FFFFFF" fill-rule="nonzero"></path>
	<path d="M234.931,275.227 C236.483,271.998 237.136,268.57 236.984,265.437 C236.939,257.697 234.556,249.636 230.301,243.862 C228.519,241.444 226.388,239.123 223.975,237.362 C218.351,233.256 211.567,234.883 208.037,240.903 C207.334,242.101 206.679,243.419 206.408,244.763 C203.875,257.336 206.8,268.438 215.651,277.83 C216.596,278.834 217.812,279.647 219.029,280.318 C225.302,283.777 231.832,281.672 234.931,275.227 Z" id="Shape" fill="#FFFFFF" fill-rule="nonzero"></path>
</svg>